<svg width="2880" height="2694" viewBox="0 0 2880 2694" fill="none" xmlns="http://www.w3.org/2000/svg">
<rect width="2880" height="2694" fill="#F8F8F8"/>
<rect x="5" y="222" width="1910" height="2467" fill="#DFDFDF" stroke="#120796" stroke-width="10"/>
<rect width="2880" height="217" fill="#C6C6C6"/>
<path d="M702.336 1462.3C702.336 1468.83 700.852 1474.05 697.883 1477.96C694.914 1481.84 690.93 1483.78 685.93 1483.78C681.294 1483.78 677.583 1482.26 674.797 1479.21V1499.25H665.305V1440.73H674.055L674.445 1445.03C677.232 1441.65 681.021 1439.95 685.812 1439.95C690.969 1439.95 695.005 1441.88 697.922 1445.73C700.865 1449.56 702.336 1454.89 702.336 1461.71V1462.3ZM692.883 1461.48C692.883 1457.26 692.036 1453.91 690.344 1451.44C688.677 1448.96 686.281 1447.73 683.156 1447.73C679.276 1447.73 676.49 1449.33 674.797 1452.53V1471.28C676.516 1474.56 679.328 1476.2 683.234 1476.2C686.255 1476.2 688.612 1474.99 690.305 1472.57C692.023 1470.12 692.883 1466.42 692.883 1461.48ZM732.531 1449.41C731.281 1449.2 729.992 1449.09 728.664 1449.09C724.315 1449.09 721.385 1450.76 719.875 1454.09V1483H710.383V1440.73H719.445L719.68 1445.46C721.971 1441.79 725.148 1439.95 729.211 1439.95C730.565 1439.95 731.685 1440.14 732.57 1440.5L732.531 1449.41ZM735.344 1461.48C735.344 1457.34 736.164 1453.61 737.805 1450.3C739.445 1446.97 741.75 1444.42 744.719 1442.65C747.688 1440.85 751.099 1439.95 754.953 1439.95C760.656 1439.95 765.279 1441.79 768.82 1445.46C772.388 1449.13 774.315 1454 774.602 1460.07L774.641 1462.3C774.641 1466.46 773.833 1470.19 772.219 1473.47C770.63 1476.75 768.339 1479.29 765.344 1481.09C762.375 1482.88 758.938 1483.78 755.031 1483.78C749.068 1483.78 744.289 1481.8 740.695 1477.84C737.128 1473.86 735.344 1468.56 735.344 1461.95V1461.48ZM744.836 1462.3C744.836 1466.65 745.734 1470.06 747.531 1472.53C749.328 1474.98 751.828 1476.2 755.031 1476.2C758.234 1476.2 760.721 1474.95 762.492 1472.45C764.289 1469.95 765.188 1466.29 765.188 1461.48C765.188 1457.21 764.263 1453.82 762.414 1451.32C760.591 1448.82 758.104 1447.57 754.953 1447.57C751.854 1447.57 749.393 1448.81 747.57 1451.28C745.747 1453.73 744.836 1457.4 744.836 1462.3ZM780.891 1461.55C780.891 1455.04 782.401 1449.82 785.422 1445.89C788.443 1441.93 792.492 1439.95 797.57 1439.95C802.049 1439.95 805.669 1441.52 808.43 1444.64V1423H817.922V1483H809.328L808.859 1478.62C806.021 1482.06 802.232 1483.78 797.492 1483.78C792.544 1483.78 788.534 1481.79 785.461 1477.8C782.414 1473.82 780.891 1468.4 780.891 1461.55ZM790.383 1462.38C790.383 1466.67 791.203 1470.03 792.844 1472.45C794.51 1474.85 796.867 1476.05 799.914 1476.05C803.794 1476.05 806.633 1474.32 808.43 1470.85V1452.8C806.685 1449.42 803.872 1447.73 799.992 1447.73C796.919 1447.73 794.549 1448.95 792.883 1451.4C791.216 1453.82 790.383 1457.48 790.383 1462.38ZM853.43 1478.86C850.643 1482.14 846.685 1483.78 841.555 1483.78C836.971 1483.78 833.495 1482.44 831.125 1479.76C828.781 1477.08 827.609 1473.2 827.609 1468.12V1440.73H837.102V1468C837.102 1473.36 839.328 1476.05 843.781 1476.05C848.391 1476.05 851.503 1474.39 853.117 1471.09V1440.73H862.609V1483H853.664L853.43 1478.86ZM889.641 1476.2C892.01 1476.2 893.977 1475.51 895.539 1474.13C897.102 1472.75 897.935 1471.05 898.039 1469.02H906.984C906.88 1471.65 906.06 1474.11 904.523 1476.4C902.987 1478.66 900.904 1480.46 898.273 1481.79C895.643 1483.12 892.805 1483.78 889.758 1483.78C883.846 1483.78 879.159 1481.87 875.695 1478.04C872.232 1474.21 870.5 1468.92 870.5 1462.18V1461.2C870.5 1454.77 872.219 1449.63 875.656 1445.77C879.094 1441.89 883.781 1439.95 889.719 1439.95C894.745 1439.95 898.833 1441.42 901.984 1444.37C905.161 1447.28 906.828 1451.12 906.984 1455.89H898.039C897.935 1453.47 897.102 1451.48 895.539 1449.91C894.003 1448.35 892.036 1447.57 889.641 1447.57C886.568 1447.57 884.198 1448.69 882.531 1450.93C880.865 1453.14 880.018 1456.52 879.992 1461.05V1462.57C879.992 1467.15 880.812 1470.58 882.453 1472.84C884.12 1475.08 886.516 1476.2 889.641 1476.2ZM926.047 1430.46V1440.73H933.508V1447.77H926.047V1471.36C926.047 1472.97 926.359 1474.15 926.984 1474.88C927.635 1475.58 928.781 1475.93 930.422 1475.93C931.516 1475.93 932.622 1475.8 933.742 1475.54V1482.88C931.581 1483.48 929.497 1483.78 927.492 1483.78C920.201 1483.78 916.555 1479.76 916.555 1471.71V1447.77H909.602V1440.73H916.555V1430.46H926.047ZM964.484 1471.52C964.484 1469.82 963.781 1468.53 962.375 1467.65C960.995 1466.76 958.69 1465.98 955.461 1465.3C952.232 1464.63 949.536 1463.77 947.375 1462.73C942.635 1460.43 940.266 1457.11 940.266 1452.77C940.266 1449.12 941.802 1446.07 944.875 1443.62C947.948 1441.18 951.854 1439.95 956.594 1439.95C961.646 1439.95 965.721 1441.2 968.82 1443.7C971.945 1446.2 973.508 1449.45 973.508 1453.43H964.016C964.016 1451.61 963.339 1450.1 961.984 1448.9C960.63 1447.67 958.833 1447.06 956.594 1447.06C954.51 1447.06 952.805 1447.54 951.477 1448.51C950.174 1449.47 949.523 1450.76 949.523 1452.38C949.523 1453.83 950.135 1454.97 951.359 1455.77C952.583 1456.58 955.057 1457.4 958.781 1458.23C962.505 1459.04 965.422 1460.02 967.531 1461.16C969.667 1462.28 971.242 1463.64 972.258 1465.23C973.299 1466.82 973.82 1468.74 973.82 1471.01C973.82 1474.81 972.245 1477.9 969.094 1480.27C965.943 1482.61 961.815 1483.78 956.711 1483.78C953.247 1483.78 950.161 1483.16 947.453 1481.91C944.745 1480.66 942.635 1478.94 941.125 1476.75C939.615 1474.56 938.859 1472.21 938.859 1469.68H948.078C948.208 1471.92 949.055 1473.65 950.617 1474.88C952.18 1476.07 954.25 1476.67 956.828 1476.67C959.328 1476.67 961.229 1476.2 962.531 1475.27C963.833 1474.3 964.484 1473.05 964.484 1471.52ZM1025.73 1471.52C1025.73 1469.82 1025.03 1468.53 1023.62 1467.65C1022.24 1466.76 1019.94 1465.98 1016.71 1465.3C1013.48 1464.63 1010.79 1463.77 1008.62 1462.73C1003.89 1460.43 1001.52 1457.11 1001.52 1452.77C1001.52 1449.12 1003.05 1446.07 1006.12 1443.62C1009.2 1441.18 1013.1 1439.95 1017.84 1439.95C1022.9 1439.95 1026.97 1441.2 1030.07 1443.7C1033.2 1446.2 1034.76 1449.45 1034.76 1453.43H1025.27C1025.27 1451.61 1024.59 1450.1 1023.23 1448.9C1021.88 1447.67 1020.08 1447.06 1017.84 1447.06C1015.76 1447.06 1014.05 1447.54 1012.73 1448.51C1011.42 1449.47 1010.77 1450.76 1010.77 1452.38C1010.77 1453.83 1011.39 1454.97 1012.61 1455.77C1013.83 1456.58 1016.31 1457.4 1020.03 1458.23C1023.76 1459.04 1026.67 1460.02 1028.78 1461.16C1030.92 1462.28 1032.49 1463.64 1033.51 1465.23C1034.55 1466.82 1035.07 1468.74 1035.07 1471.01C1035.07 1474.81 1033.49 1477.9 1030.34 1480.27C1027.19 1482.61 1023.07 1483.78 1017.96 1483.78C1014.5 1483.78 1011.41 1483.16 1008.7 1481.91C1005.99 1480.66 1003.89 1478.94 1002.38 1476.75C1000.86 1474.56 1000.11 1472.21 1000.11 1469.68H1009.33C1009.46 1471.92 1010.3 1473.65 1011.87 1474.88C1013.43 1476.07 1015.5 1476.67 1018.08 1476.67C1020.58 1476.67 1022.48 1476.2 1023.78 1475.27C1025.08 1474.3 1025.73 1473.05 1025.73 1471.52ZM1061.98 1483.78C1055.97 1483.78 1051.09 1481.89 1047.34 1478.12C1043.61 1474.32 1041.75 1469.26 1041.75 1462.96V1461.79C1041.75 1457.57 1042.56 1453.81 1044.17 1450.5C1045.81 1447.17 1048.1 1444.58 1051.05 1442.73C1053.99 1440.88 1057.27 1439.95 1060.89 1439.95C1066.65 1439.95 1071.09 1441.79 1074.21 1445.46C1077.36 1449.13 1078.94 1454.33 1078.94 1461.05V1464.88H1051.32C1051.61 1468.36 1052.77 1471.12 1054.8 1473.16C1056.85 1475.19 1059.43 1476.2 1062.53 1476.2C1066.88 1476.2 1070.42 1474.45 1073.16 1470.93L1078.27 1475.81C1076.58 1478.34 1074.32 1480.3 1071.48 1481.71C1068.66 1483.09 1065.5 1483.78 1061.98 1483.78ZM1060.85 1447.57C1058.25 1447.57 1056.14 1448.48 1054.52 1450.3C1052.93 1452.13 1051.92 1454.67 1051.48 1457.92H1069.56V1457.22C1069.35 1454.04 1068.51 1451.65 1067.02 1450.03C1065.54 1448.39 1063.48 1447.57 1060.85 1447.57ZM1103.7 1476.2C1106.07 1476.2 1108.04 1475.51 1109.6 1474.13C1111.16 1472.75 1112 1471.05 1112.1 1469.02H1121.05C1120.94 1471.65 1120.12 1474.11 1118.59 1476.4C1117.05 1478.66 1114.97 1480.46 1112.34 1481.79C1109.71 1483.12 1106.87 1483.78 1103.82 1483.78C1097.91 1483.78 1093.22 1481.87 1089.76 1478.04C1086.29 1474.21 1084.56 1468.92 1084.56 1462.18V1461.2C1084.56 1454.77 1086.28 1449.63 1089.72 1445.77C1093.16 1441.89 1097.84 1439.95 1103.78 1439.95C1108.81 1439.95 1112.9 1441.42 1116.05 1444.37C1119.22 1447.28 1120.89 1451.12 1121.05 1455.89H1112.1C1112 1453.47 1111.16 1451.48 1109.6 1449.91C1108.07 1448.35 1106.1 1447.57 1103.7 1447.57C1100.63 1447.57 1098.26 1448.69 1096.59 1450.93C1094.93 1453.14 1094.08 1456.52 1094.05 1461.05V1462.57C1094.05 1467.15 1094.88 1470.58 1096.52 1472.84C1098.18 1475.08 1100.58 1476.2 1103.7 1476.2ZM1140.11 1430.46V1440.73H1147.57V1447.77H1140.11V1471.36C1140.11 1472.97 1140.42 1474.15 1141.05 1474.88C1141.7 1475.58 1142.84 1475.93 1144.48 1475.93C1145.58 1475.93 1146.68 1475.8 1147.8 1475.54V1482.88C1145.64 1483.48 1143.56 1483.78 1141.55 1483.78C1134.26 1483.78 1130.62 1479.76 1130.62 1471.71V1447.77H1123.66V1440.73H1130.62V1430.46H1140.11ZM1164.95 1483H1155.46V1440.73H1164.95V1483ZM1154.88 1429.76C1154.88 1428.3 1155.33 1427.09 1156.24 1426.12C1157.18 1425.16 1158.51 1424.68 1160.23 1424.68C1161.95 1424.68 1163.27 1425.16 1164.21 1426.12C1165.15 1427.09 1165.62 1428.3 1165.62 1429.76C1165.62 1431.19 1165.15 1432.39 1164.21 1433.35C1163.27 1434.29 1161.95 1434.76 1160.23 1434.76C1158.51 1434.76 1157.18 1434.29 1156.24 1433.35C1155.33 1432.39 1154.88 1431.19 1154.88 1429.76ZM1173.55 1461.48C1173.55 1457.34 1174.37 1453.61 1176.01 1450.3C1177.65 1446.97 1179.95 1444.42 1182.92 1442.65C1185.89 1440.85 1189.3 1439.95 1193.16 1439.95C1198.86 1439.95 1203.48 1441.79 1207.02 1445.46C1210.59 1449.13 1212.52 1454 1212.8 1460.07L1212.84 1462.3C1212.84 1466.46 1212.04 1470.19 1210.42 1473.47C1208.83 1476.75 1206.54 1479.29 1203.55 1481.09C1200.58 1482.88 1197.14 1483.78 1193.23 1483.78C1187.27 1483.78 1182.49 1481.8 1178.9 1477.84C1175.33 1473.86 1173.55 1468.56 1173.55 1461.95V1461.48ZM1183.04 1462.3C1183.04 1466.65 1183.94 1470.06 1185.73 1472.53C1187.53 1474.98 1190.03 1476.2 1193.23 1476.2C1196.44 1476.2 1198.92 1474.95 1200.7 1472.45C1202.49 1469.95 1203.39 1466.29 1203.39 1461.48C1203.39 1457.21 1202.47 1453.82 1200.62 1451.32C1198.79 1448.82 1196.31 1447.57 1193.16 1447.57C1190.06 1447.57 1187.6 1448.81 1185.77 1451.28C1183.95 1453.73 1183.04 1457.4 1183.04 1462.3ZM1229.68 1440.73L1229.95 1445.62C1233.08 1441.84 1237.18 1439.95 1242.26 1439.95C1251.06 1439.95 1255.54 1444.99 1255.7 1455.07V1483H1246.2V1455.62C1246.2 1452.93 1245.62 1450.96 1244.45 1449.68C1243.3 1448.38 1241.41 1447.73 1238.78 1447.73C1234.95 1447.73 1232.1 1449.46 1230.23 1452.92V1483H1220.73V1440.73H1229.68Z" fill="black"/>
</svg>
