<svg width="2880" height="2694" viewBox="0 0 2880 2694" fill="none" xmlns="http://www.w3.org/2000/svg">
<rect width="2880" height="2694" fill="#F8F8F8"/>
<rect x="-5" y="5" width="950" height="2467" transform="matrix(-1 0 0 1 2870 217)" fill="#DFDFDF" stroke="#120796" stroke-width="10"/>
<rect width="2880" height="217" fill="#C6C6C6"/>
<path d="M2159.49 1374C2159.08 1373.19 2158.71 1371.88 2158.4 1370.05C2155.38 1373.21 2151.68 1374.78 2147.3 1374.78C2143.06 1374.78 2139.6 1373.57 2136.91 1371.15C2134.23 1368.73 2132.89 1365.73 2132.89 1362.16C2132.89 1357.66 2134.56 1354.21 2137.89 1351.81C2141.25 1349.39 2146.04 1348.18 2152.27 1348.18H2158.09V1345.41C2158.09 1343.22 2157.47 1341.47 2156.25 1340.17C2155.03 1338.84 2153.16 1338.18 2150.66 1338.18C2148.5 1338.18 2146.73 1338.73 2145.35 1339.82C2143.97 1340.89 2143.28 1342.26 2143.28 1343.92H2133.79C2133.79 1341.6 2134.56 1339.44 2136.09 1337.44C2137.63 1335.41 2139.71 1333.82 2142.34 1332.67C2145 1331.53 2147.96 1330.95 2151.21 1330.95C2156.16 1330.95 2160.1 1332.2 2163.05 1334.7C2165.99 1337.18 2167.5 1340.67 2167.58 1345.17V1364.23C2167.58 1368.04 2168.11 1371.07 2169.18 1373.34V1374H2159.49ZM2149.06 1367.16C2150.94 1367.16 2152.7 1366.71 2154.34 1365.8C2156 1364.89 2157.25 1363.66 2158.09 1362.12V1354.16H2152.97C2149.45 1354.16 2146.81 1354.77 2145.04 1355.99C2143.27 1357.22 2142.38 1358.95 2142.38 1361.19C2142.38 1363.01 2142.98 1364.47 2144.18 1365.56C2145.4 1366.63 2147.03 1367.16 2149.06 1367.16ZM2194.88 1367.2C2197.25 1367.2 2199.22 1366.51 2200.78 1365.13C2202.34 1363.75 2203.18 1362.05 2203.28 1360.02H2212.23C2212.12 1362.65 2211.3 1365.11 2209.77 1367.4C2208.23 1369.66 2206.15 1371.46 2203.52 1372.79C2200.89 1374.12 2198.05 1374.78 2195 1374.78C2189.09 1374.78 2184.4 1372.87 2180.94 1369.04C2177.47 1365.21 2175.74 1359.92 2175.74 1353.18V1352.2C2175.74 1345.77 2177.46 1340.63 2180.9 1336.77C2184.34 1332.89 2189.02 1330.95 2194.96 1330.95C2199.99 1330.95 2204.08 1332.42 2207.23 1335.37C2210.4 1338.28 2212.07 1342.12 2212.23 1346.89H2203.28C2203.18 1344.47 2202.34 1342.48 2200.78 1340.91C2199.24 1339.35 2197.28 1338.57 2194.88 1338.57C2191.81 1338.57 2189.44 1339.69 2187.77 1341.93C2186.11 1344.14 2185.26 1347.52 2185.23 1352.05V1353.57C2185.23 1358.15 2186.05 1361.58 2187.7 1363.84C2189.36 1366.08 2191.76 1367.2 2194.88 1367.2ZM2231.29 1321.46V1331.73H2238.75V1338.77H2231.29V1362.36C2231.29 1363.97 2231.6 1365.15 2232.23 1365.88C2232.88 1366.58 2234.02 1366.93 2235.66 1366.93C2236.76 1366.93 2237.86 1366.8 2238.98 1366.54V1373.88C2236.82 1374.48 2234.74 1374.78 2232.73 1374.78C2225.44 1374.78 2221.8 1370.76 2221.8 1362.71V1338.77H2214.84V1331.73H2221.8V1321.46H2231.29ZM2256.13 1374H2246.64V1331.73H2256.13V1374ZM2246.05 1320.76C2246.05 1319.3 2246.51 1318.09 2247.42 1317.12C2248.36 1316.16 2249.69 1315.68 2251.41 1315.68C2253.12 1315.68 2254.45 1316.16 2255.39 1317.12C2256.33 1318.09 2256.8 1319.3 2256.8 1320.76C2256.8 1322.19 2256.33 1323.39 2255.39 1324.35C2254.45 1325.29 2253.12 1325.76 2251.41 1325.76C2249.69 1325.76 2248.36 1325.29 2247.42 1324.35C2246.51 1323.39 2246.05 1322.19 2246.05 1320.76ZM2281.41 1361.97L2290.35 1331.73H2300.16L2285.51 1374H2277.27L2262.5 1331.73H2272.34L2281.41 1361.97ZM2316.21 1374H2306.72V1331.73H2316.21V1374ZM2306.13 1320.76C2306.13 1319.3 2306.59 1318.09 2307.5 1317.12C2308.44 1316.16 2309.77 1315.68 2311.48 1315.68C2313.2 1315.68 2314.53 1316.16 2315.47 1317.12C2316.41 1318.09 2316.88 1319.3 2316.88 1320.76C2316.88 1322.19 2316.41 1323.39 2315.47 1324.35C2314.53 1325.29 2313.2 1325.76 2311.48 1325.76C2309.77 1325.76 2308.44 1325.29 2307.5 1324.35C2306.59 1323.39 2306.13 1322.19 2306.13 1320.76ZM2338.48 1321.46V1331.73H2345.94V1338.77H2338.48V1362.36C2338.48 1363.97 2338.79 1365.15 2339.41 1365.88C2340.07 1366.58 2341.21 1366.93 2342.85 1366.93C2343.95 1366.93 2345.05 1366.8 2346.17 1366.54V1373.88C2344.01 1374.48 2341.93 1374.78 2339.92 1374.78C2332.63 1374.78 2328.98 1370.76 2328.98 1362.71V1338.77H2322.03V1331.73H2328.98V1321.46H2338.48ZM2368.01 1360.41L2376.6 1331.73H2386.72L2369.92 1380.41C2367.34 1387.52 2362.97 1391.07 2356.8 1391.07C2355.42 1391.07 2353.89 1390.84 2352.23 1390.37V1383.02L2354.02 1383.14C2356.42 1383.14 2358.22 1382.7 2359.41 1381.81C2360.64 1380.95 2361.6 1379.49 2362.3 1377.44L2363.67 1373.8L2348.83 1331.73H2359.06L2368.01 1360.41ZM2435.82 1362.52C2435.82 1360.82 2435.12 1359.53 2433.71 1358.65C2432.33 1357.76 2430.03 1356.98 2426.8 1356.3C2423.57 1355.63 2420.87 1354.77 2418.71 1353.73C2413.97 1351.43 2411.6 1348.11 2411.6 1343.77C2411.6 1340.12 2413.14 1337.07 2416.21 1334.62C2419.28 1332.18 2423.19 1330.95 2427.93 1330.95C2432.98 1330.95 2437.06 1332.2 2440.16 1334.7C2443.28 1337.2 2444.84 1340.45 2444.84 1344.43H2435.35C2435.35 1342.61 2434.67 1341.1 2433.32 1339.9C2431.97 1338.67 2430.17 1338.06 2427.93 1338.06C2425.85 1338.06 2424.14 1338.54 2422.81 1339.51C2421.51 1340.47 2420.86 1341.76 2420.86 1343.38C2420.86 1344.83 2421.47 1345.97 2422.7 1346.77C2423.92 1347.58 2426.39 1348.4 2430.12 1349.23C2433.84 1350.04 2436.76 1351.02 2438.87 1352.16C2441 1353.28 2442.58 1354.64 2443.59 1356.23C2444.64 1357.82 2445.16 1359.74 2445.16 1362.01C2445.16 1365.81 2443.58 1368.9 2440.43 1371.27C2437.28 1373.61 2433.15 1374.78 2428.05 1374.78C2424.58 1374.78 2421.5 1374.16 2418.79 1372.91C2416.08 1371.66 2413.97 1369.94 2412.46 1367.75C2410.95 1365.56 2410.2 1363.21 2410.2 1360.68H2419.41C2419.54 1362.92 2420.39 1364.65 2421.95 1365.88C2423.52 1367.07 2425.59 1367.67 2428.16 1367.67C2430.66 1367.67 2432.57 1367.2 2433.87 1366.27C2435.17 1365.3 2435.82 1364.05 2435.82 1362.52ZM2472.07 1374.78C2466.05 1374.78 2461.17 1372.89 2457.42 1369.12C2453.7 1365.32 2451.84 1360.26 2451.84 1353.96V1352.79C2451.84 1348.57 2452.64 1344.81 2454.26 1341.5C2455.9 1338.17 2458.19 1335.58 2461.13 1333.73C2464.08 1331.88 2467.36 1330.95 2470.98 1330.95C2476.73 1330.95 2481.17 1332.79 2484.3 1336.46C2487.45 1340.13 2489.02 1345.33 2489.02 1352.05V1355.88H2461.41C2461.69 1359.36 2462.85 1362.12 2464.88 1364.16C2466.94 1366.19 2469.52 1367.2 2472.62 1367.2C2476.97 1367.2 2480.51 1365.45 2483.24 1361.93L2488.36 1366.81C2486.67 1369.34 2484.4 1371.3 2481.56 1372.71C2478.75 1374.09 2475.59 1374.78 2472.07 1374.78ZM2470.94 1338.57C2468.33 1338.57 2466.22 1339.48 2464.61 1341.3C2463.02 1343.13 2462.01 1345.67 2461.56 1348.92H2479.65V1348.22C2479.44 1345.04 2478.59 1342.65 2477.11 1341.03C2475.62 1339.39 2473.57 1338.57 2470.94 1338.57ZM2513.79 1367.2C2516.16 1367.2 2518.12 1366.51 2519.69 1365.13C2521.25 1363.75 2522.08 1362.05 2522.19 1360.02H2531.13C2531.03 1362.65 2530.21 1365.11 2528.67 1367.4C2527.14 1369.66 2525.05 1371.46 2522.42 1372.79C2519.79 1374.12 2516.95 1374.78 2513.91 1374.78C2507.99 1374.78 2503.31 1372.87 2499.84 1369.04C2496.38 1365.21 2494.65 1359.92 2494.65 1353.18V1352.2C2494.65 1345.77 2496.37 1340.63 2499.8 1336.77C2503.24 1332.89 2507.93 1330.95 2513.87 1330.95C2518.89 1330.95 2522.98 1332.42 2526.13 1335.37C2529.31 1338.28 2530.98 1342.12 2531.13 1346.89H2522.19C2522.08 1344.47 2521.25 1342.48 2519.69 1340.91C2518.15 1339.35 2516.18 1338.57 2513.79 1338.57C2510.72 1338.57 2508.35 1339.69 2506.68 1341.93C2505.01 1344.14 2504.17 1347.52 2504.14 1352.05V1353.57C2504.14 1358.15 2504.96 1361.58 2506.6 1363.84C2508.27 1366.08 2510.66 1367.2 2513.79 1367.2ZM2550.2 1321.46V1331.73H2557.66V1338.77H2550.2V1362.36C2550.2 1363.97 2550.51 1365.15 2551.13 1365.88C2551.78 1366.58 2552.93 1366.93 2554.57 1366.93C2555.66 1366.93 2556.77 1366.8 2557.89 1366.54V1373.88C2555.73 1374.48 2553.65 1374.78 2551.64 1374.78C2544.35 1374.78 2540.7 1370.76 2540.7 1362.71V1338.77H2533.75V1331.73H2540.7V1321.46H2550.2ZM2575.04 1374H2565.55V1331.73H2575.04V1374ZM2564.96 1320.76C2564.96 1319.3 2565.42 1318.09 2566.33 1317.12C2567.27 1316.16 2568.59 1315.68 2570.31 1315.68C2572.03 1315.68 2573.36 1316.16 2574.3 1317.12C2575.23 1318.09 2575.7 1319.3 2575.7 1320.76C2575.7 1322.19 2575.23 1323.39 2574.3 1324.35C2573.36 1325.29 2572.03 1325.76 2570.31 1325.76C2568.59 1325.76 2567.27 1325.29 2566.33 1324.35C2565.42 1323.39 2564.96 1322.19 2564.96 1320.76ZM2583.63 1352.48C2583.63 1348.34 2584.45 1344.61 2586.09 1341.3C2587.73 1337.97 2590.04 1335.42 2593.01 1333.65C2595.98 1331.85 2599.39 1330.95 2603.24 1330.95C2608.95 1330.95 2613.57 1332.79 2617.11 1336.46C2620.68 1340.13 2622.6 1345 2622.89 1351.07L2622.93 1353.3C2622.93 1357.46 2622.12 1361.19 2620.51 1364.47C2618.92 1367.75 2616.63 1370.29 2613.63 1372.09C2610.66 1373.88 2607.23 1374.78 2603.32 1374.78C2597.36 1374.78 2592.58 1372.8 2588.98 1368.84C2585.42 1364.86 2583.63 1359.56 2583.63 1352.95V1352.48ZM2593.12 1353.3C2593.12 1357.65 2594.02 1361.06 2595.82 1363.53C2597.62 1365.98 2600.12 1367.2 2603.32 1367.2C2606.52 1367.2 2609.01 1365.95 2610.78 1363.45C2612.58 1360.95 2613.48 1357.29 2613.48 1352.48C2613.48 1348.21 2612.55 1344.82 2610.7 1342.32C2608.88 1339.82 2606.39 1338.57 2603.24 1338.57C2600.14 1338.57 2597.68 1339.81 2595.86 1342.28C2594.04 1344.73 2593.12 1348.4 2593.12 1353.3ZM2639.77 1331.73L2640.04 1336.62C2643.16 1332.84 2647.27 1330.95 2652.34 1330.95C2661.15 1330.95 2665.62 1335.99 2665.78 1346.07V1374H2656.29V1346.62C2656.29 1343.93 2655.7 1341.96 2654.53 1340.68C2653.39 1339.38 2651.5 1338.73 2648.87 1338.73C2645.04 1338.73 2642.19 1340.46 2640.31 1343.92V1374H2630.82V1331.73H2639.77Z" fill="black"/>
</svg>
